inDegrees=yes
name=IK-live
DataType=double
version=3
OpenSimVersion=4.1
endheader
time	pelvis_tilt	pelvis_list	pelvis_rotation	pelvis_tx	pelvis_ty	pelvis_tz	hip_flexion_r	hip_adduction_r	hip_rotation_r	knee_angle_r	ankle_angle_r	subtalar_angle_r	mtp_angle_r	hip_flexion_l	hip_adduction_l	hip_rotation_l	knee_angle_l	ankle_angle_l	subtalar_angle_l	mtp_angle_l	lumbar_extension	lumbar_bending	lumbar_rotation	neck_flex	neck_latbend	neck_rot	arm_flex_r	arm_add_r	arm_rot_r	elbow_flex_r	pro_sup_r	wrist_flex_r	wrist_dev_r	arm_flex_l	arm_add_l	arm_rot_l	elbow_flex_l	pro_sup_l	wrist_flex_l	wrist_dev_l
12.9249792	55.56894653608928	-55.40370781877667	-210.3959817731086	0.2341366603171506	0.04326292228651554	-1.326684523481465	-22.57117169827992	-1.591976316804377	-3.241458145969817	5.899560354604904	2.451982624139334	1.987972377786656	0	-24.74788768789517	-3.395140484746916	-11.58000132048591	9.793848132074926	-0.4439473045988533	4.250290820099795	0	-21.37711699760957	1.659277491615732	3.206407148933037	0	0	0	0.7888992188930954	-15.17646440255517	33.30004782777753	7.165288045168098	24.90358085650442	0	0.02587298618439956	5.879094813571228	-13.23017456388325	43.88195404306976	6.984254113867661	33.49454480332719	0	0.02587298618439956
13.0758818	50.83357363737461	-53.10237935841372	-214.1113303532024	0.2341366603171506	0.04326292228651554	-1.326684523481465	-22.57117169827992	-1.591976316804377	-3.241458145969817	5.899560354604904	2.451982624139334	1.987972377786656	0	-24.74788768789517	-3.395140484746916	-11.58000132048591	9.793848132074926	-0.4439473045988533	4.250290820099795	0	-21.37711699760957	1.659277491615732	3.206407148933037	0	0	0	0.7883196366414456	-15.17646694635158	33.30080574079884	7.154625815458692	24.90159997988956	0	0.02496337465428754	5.878567398915749	-13.2301490440248	43.88308553582663	6.97329873394441	33.49357435151301	0	0.02496337465428754
13.2358651	50.5874682645066	-51.9319448501425	-214.3762119123052	0.2341366603171506	0.04326292228651554	-1.326684523481465	-22.57117169827992	-1.591976316804377	-3.241458145969817	5.899560354604904	2.451982624139334	1.987972377786656	0	-24.74788768789517	-3.395140484746916	-11.58000132048591	9.793848132074926	-0.4439473045988533	4.250290820099795	0	-21.37711699760957	1.659277491615732	3.206407148933037	0	0	0	0.7883273360739617	-15.17646691480424	33.30079734609883	7.154516354110569	24.90161092319899	0	0.02496628649666888	5.87857446157098	-13.23014936048616	43.8830737486917	6.973179568682158	33.49358111717351	0	0.02496628649666888
13.3887874	41.04867335229406	-47.55654280119493	-223.2586142914333	0.2341366603171506	0.04326292228651554	-1.326684523481465	-22.57117169827992	-1.591976316804377	-3.241458145969817	5.899560354604904	2.451982624139334	1.987972377786656	0	-24.74788768789517	-3.395140484746916	-11.58000132048591	9.793848132074926	-0.4439473045988533	4.250290820099795	0	-21.37711699760957	1.659277491615732	3.206407148933037	0	0	0	0.7874302862697556	-15.17647085409424	33.30197192870946	7.137829356004269	24.89853236075201	0	0.02355105856830241	5.877758209151664	-13.23010984074057	43.88482791827555	6.956029331946672	33.49207395104487	0	0.02355105856830241
13.5495938	6.325242179445612	-1.578279160664129	-252.1107454897585	0.2341366603171506	0.04326292228651554	-1.326684523481465	-22.57117169827992	-1.591976316804377	-3.241458145969817	5.899560354604904	2.451982624139334	1.987972377786656	0	-24.74788768789517	-3.395140484746916	-11.58000132048591	9.793848132074926	-0.4439473045988533	4.250290820099795	0	-21.37711699760957	1.659277491615732	3.206407148933037	0	0	0	0.777572197001593	-15.17651404841273	33.31480982648755	6.961428250628503	24.86531836679438	0	0.008368096112169689	5.868785722071093	-13.22967650782273	43.90397094128102	6.774794446191433	33.47576332617621	0	0.008368096112169689
13.7014952	7.945210643428242	17.72277228922946	-258.7914806943747	0.2341366603171506	0.04326292228651554	-1.326684523481465	-22.57117169827992	-1.591976316804377	-3.241458145969817	5.899560354604904	2.451982624139334	1.987972377786656	0	-24.74788768789517	-3.395140484746916	-11.58000132048591	9.793848132074926	-0.4439473045988533	4.250290820099795	0	-21.37711699760957	1.659277491615732	3.206407148933037	0	0	0	0.7804485920208148	-15.17650147000848	33.31108116916673	7.011825688377599	24.87487865464426	0	0.01272292450082175	5.871404343714492	-13.2298026962813	43.89841758329563	6.826579484075659	33.48046724487939	0	0.01272292450082175
13.8624783	4.92578659863682	22.08524450315913	-263.6747929721523	0.2341366603171506	0.04326292228651554	-1.326684523481465	-22.57117169827992	-1.591976316804377	-3.241458145969817	5.899560354604904	2.451982624139334	1.987972377786656	0	-24.74788768789517	-3.395140484746916	-11.58000132048591	9.793848132074926	-0.4439473045988533	4.250290820099795	0	-21.37711699760957	1.659277491615732	3.206407148933037	0	0	0	0.7818657901506697	-15.17649527075657	33.30924276801272	7.036824666354169	24.87959834524688	0	0.0148736727688595	5.872694483416363	-13.22986488813884	43.89567901895752	6.852272657134225	33.48278868851381	0	0.0148736727688595
14.013371	0.9242402234404059	22.74012952547401	-260.7941661146331	0.2341366603171506	0.04326292228651554	-1.326684523481465	-22.57117169827992	-1.591976316804377	-3.241458145969817	5.899560354604904	2.451982624139334	1.987972377786656	0	-24.74788768789517	-3.395140484746916	-11.58000132048591	9.793848132074926	-0.4439473045988533	4.250290820099795	0	-21.37711699760957	1.659277491615732	3.206407148933037	0	0	0	0.781877506801845	-15.17649521724273	33.30922589475396	7.037261775207374	24.87965258069577	0	0.01490054462136526	5.872705093688457	-13.2298654250254	43.89565314332388	6.852727366541967	33.48281398506428	0	0.01490054462136526
14.1742018	0.9503939159039276	20.26061163008844	-261.671880330709	0.2341366603171506	0.04326292228651554	-1.326684523481465	-22.57117169827992	-1.591976316804377	-3.241458145969817	5.899560354604904	2.451982624139334	1.987972377786656	0	-24.74788768789517	-3.395140484746916	-11.58000132048591	9.793848132074926	-0.4439473045988533	4.250290820099795	0	-21.37711699760957	1.659277491615732	3.206407148933037	0	0	0	0.7818465947412087	-15.17649535209796	33.30926573757205	7.036768005584405	24.87955159400193	0	0.01485470702816074	5.872676942052956	-13.22986407214147	43.89571238882947	6.852222187232701	33.48276412023819	0	0.01485470702816074
14.32612	2.130197266316384	18.72551118966192	-270.1023643030563	0.2341366603171506	0.04326292228651554	-1.326684523481465	-22.57117169827992	-1.591976316804377	-3.241458145969817	5.899560354604904	2.451982624139334	1.987972377786656	0	-24.74788768789517	-3.395140484746916	-11.58000132048591	9.793848132074926	-0.4439473045988533	4.250290820099795	0	-21.37711699760957	1.659277491615732	3.206407148933037	0	0	0	0.7818262135418512	-15.176495440968	33.30929197540313	7.036440839018441	24.87948529767952	0	0.01482466433462625	5.87265838010376	-13.22986318058684	43.89575139109326	6.851887155934767	33.48273136754565	0	0.01482466433462625
